<svg xmlns="http://www.w3.org/2000/svg" xmlns:xlink="http://www.w3.org/1999/xlink" x="0" y="0" width="702" height="556" style="
        width:702px;
        height:556px;
        background: #FFF;
        fill: none;
">
        
        
        <svg xmlns="http://www.w3.org/2000/svg" class="role-diagram-draw-area" style="overflow: visible;"><g class="shapes-region" style="stroke: black; fill: none;"><g class="composite-shape"><path class="real" d=" M325.44,92.16 L382.56,92.16 C389.98,92.16 396,102.53 396,115.33 C396,128.13 389.98,138.5 382.56,138.5 L325.44,138.5 C318.02,138.5 312,128.13 312,115.33 C312,102.53 318.02,92.16 325.44,92.16 Z" style="stroke-width: 1px; stroke: rgb(0, 0, 0); stroke-opacity: 1; fill: rgb(144, 19, 254); fill-opacity: 0.47;"/></g><g class="composite-shape"><path class="real" d=" M284.68,239.71 C309.46,239.51 329.75,263.71 330,293.75 C330.25,323.79 310.37,348.3 285.59,348.5 C260.81,348.7 240.52,324.51 240.27,294.47 C240.02,264.43 259.9,239.91 284.68,239.71 Z" style="stroke-width: 1px; stroke: rgb(0, 0, 0); fill: rgb(241, 235, 235); fill-opacity: 1; stroke-opacity: 0.39;"/></g><g class="composite-shape"><path class="real" d=" M285.02,241.57 L313.35,262.54 L285.02,283.52 L256.69,262.54 Z" style="stroke-width: 1px; stroke: rgb(255, 0, 0); fill: rgb(255, 0, 0); fill-opacity: 0.51; stroke-opacity: 1;"/></g><g class="composite-shape"><path class="real" d=" M285.02,283.52 L313.52,303.55 L285.02,323.58 L256.51,303.55 Z" style="stroke-width: 1px; stroke: rgb(0, 118, 255); fill: rgb(0, 118, 255); fill-opacity: 0.57; stroke-opacity: 1;"/></g><g class="grouped-shape"><g class="composite-shape"><path class="real" d=" M401,283.75 C401,270.08 421.82,259 447.5,259 C473.18,259 494,270.08 494,283.75 C494,297.42 473.18,308.5 447.5,308.5 C421.82,308.5 401,297.42 401,283.75 Z" style="stroke-width: 1px; stroke: rgb(0, 0, 0); fill: rgb(224, 224, 224); fill-opacity: 0.52; stroke-opacity: 0.4;"/></g></g><g class="composite-shape"><path class="real" d=" M330,406 C330,401.58 333.58,398 338,398 L392,398 C396.42,398 400,401.58 400,406 L400,430 C400,434.42 396.42,438 392,438 L338,438 C333.58,438 330,434.42 330,430 Z" style="stroke-width: 1px; stroke: rgb(0, 0, 0); fill: rgb(247, 0, 5); fill-opacity: 0.7;"/></g><g class="arrow-line"><path class="connection real" stroke-dasharray="" d="  M324,183 C266.58,181.52 199.36,236.39 254.96,261.78" style="stroke: rgb(0, 0, 0); stroke-width: 1px; fill: none; fill-opacity: 1;"/><g stroke="#000" transform="matrix(-0.9197530075677776,-0.3924976497636994,0.3924976497636994,-0.9197530075677776,256.68554850717805,262.5428173505602)" style="stroke: rgb(0, 0, 0); stroke-width: 1px;"><path d=" M10.93,-3.29 Q4.96,-0.45 0,0 Q4.96,0.45 10.93,3.29"/></g></g><g class="composite-shape"><path class="real" d=" M324,183 C324,173.34 337.66,165.5 354.5,165.5 C371.34,165.5 385,173.34 385,183 C385,192.66 371.34,200.5 354.5,200.5 C337.66,200.5 324,192.66 324,183 Z" style="stroke-width: 1px; stroke: rgb(0, 0, 0); fill: rgb(95, 251, 216); fill-opacity: 0.96;"/></g><g class="arrow-line"><path class="connection real" stroke-dasharray="" d="  M354.5,141.5 L354.5,162.5" style="stroke: rgb(0, 0, 0); stroke-width: 1px; fill: none; fill-opacity: 1;"/><g stroke="#000" transform="matrix(-1.8369701987210297e-16,-1,1,-1.8369701987210297e-16,354.5,164.49999999999994)" style="stroke: rgb(0, 0, 0); stroke-width: 1px;"><path d=" M10.93,-3.29 Q4.96,-0.45 0,0 Q4.96,0.45 10.93,3.29"/></g></g><g class="arrow-line"><path class="connection real" stroke-dasharray="" d="  M385,183 C410.74,182.51 451.18,201.12 447.62,257.29" style="stroke: rgb(0, 0, 0); stroke-width: 1px; fill: none; fill-opacity: 1;"/><g stroke="#000" transform="matrix(0.07793710030137765,-0.996958278162438,0.996958278162438,0.07793710030137765,447.5,259.00000000000006)" style="stroke: rgb(0, 0, 0); stroke-width: 1px;"><path d=" M10.93,-3.29 Q4.96,-0.45 0,0 Q4.96,0.45 10.93,3.29"/></g></g><g class="arrow-line"><path class="connection real" stroke-dasharray="" d="  M363,397.5 C363,358.7 280.83,418.89 285.51,349.55" style="stroke: rgb(0, 0, 0); stroke-width: 1px; fill: none; fill-opacity: 1;"/><g stroke="#000" transform="matrix(-0.07845909572784508,0.996917333733128,-0.996917333733128,-0.07845909572784508,285.5904330564861,348.4993986581207)" style="stroke: rgb(0, 0, 0); stroke-width: 1px;"><path d=" M10.93,-3.29 Q4.96,-0.45 0,0 Q4.96,0.45 10.93,3.29"/></g></g><g class="arrow-line"><path class="connection real" stroke-dasharray="" d="  M312,115.33 C248.32,112.51 148.01,287.73 254.89,303.33" style="stroke: rgb(0, 0, 0); stroke-width: 1px; fill: none; fill-opacity: 1;"/><g stroke="#000" transform="matrix(-0.9918722505248975,-0.1272377249037216,0.1272377249037216,-0.9918722505248975,256.5121676425238,303.5494119520505)" style="stroke: rgb(0, 0, 0); stroke-width: 1px;"><path d=" M10.93,-3.29 Q4.96,-0.45 0,0 Q4.96,0.45 10.93,3.29"/></g></g><g class="arrow-line"><path class="connection real" stroke-dasharray="7.5 6" d="  M313.35,262.54 L398.06,279.17" style="stroke: rgb(255, 0, 0); stroke-width: 2px; fill: rgb(255, 1, 1); fill-opacity: 0.51; stroke-opacity: 0.82;"/><g stroke="rgb(255,0,0)" transform="matrix(-0.9812590476244909,-0.19269323147188425,0.19269323147188425,-0.9812590476244909,400.99999999999994,279.75)" style="stroke: rgb(255, 0, 0); stroke-width: 2px;" stroke-opacity="0.82"><path d=" M14.21,-4.28 Q6.45,-0.59 0,0 Q6.45,0.59 14.21,4.28"/></g></g><g class="arrow-line"><path class="connection real" stroke-dasharray="7.5 6" d="  M313.52,303.55 L398.05,288.28" style="stroke: rgb(0, 118, 255); stroke-width: 2px; fill: none; fill-opacity: 1; stroke-opacity: 0.8;"/><g stroke="rgb(0,118,255)" transform="matrix(-0.9840717396658479,0.17777179526300468,-0.17777179526300468,-0.9840717396658479,401,287.75)" style="stroke: rgb(0, 118, 255); stroke-width: 2px;" stroke-opacity="0.8"><path d=" M14.21,-4.28 Q6.45,-0.59 0,0 Q6.45,0.59 14.21,4.28"/></g></g><g class="composite-shape"><path class="real" d=" M239,141.25 C239,133.38 249.3,127 262,127 C274.7,127 285,133.38 285,141.25 C285,149.12 274.7,155.5 262,155.5 C249.3,155.5 239,149.12 239,141.25 Z" style="stroke-width: 1px; stroke: rgb(0, 0, 0); fill: rgb(100, 247, 214); fill-opacity: 1;"/></g><g class="composite-shape"><path class="real" d=" M287.47,126.96 C282.89,126.68 278.91,127.33 275.54,128.89 C278.3,126.41 280.46,123.01 282.01,118.69" style="stroke-width: 1px; stroke: rgb(0, 0, 0); fill: none; fill-opacity: 1;"/></g><g class="composite-shape"><path class="real" d=" M229,444 L495,444 L495,506.5 L229,506.5 Z" style="stroke-width: 1px; stroke: rgb(80, 227, 194); fill: rgb(232, 255, 249); fill-opacity: 1; stroke-opacity: 1;"/></g><g class="arrow-line"><path class="connection real" stroke-dasharray="7.5 6" d="  M233.91,462.52 L264.41,462.94" style="stroke: rgb(255, 0, 0); stroke-width: 2px; fill: none; fill-opacity: 1; stroke-opacity: 1;"/><g stroke="rgb(255,0,0)" transform="matrix(-0.9999049456400823,-0.013787664214945382,0.013787664214945382,-0.9999049456400823,267.4074074074074,462.98148148148147)" style="stroke: rgb(255, 0, 0); stroke-width: 2px;" stroke-opacity="1"><path d=" M14.21,-4.28 Q6.45,-0.59 0,0 Q6.45,0.59 14.21,4.28"/></g></g><g class="arrow-line"><path class="connection real" stroke-dasharray="7.5 6" d="  M233.91,488.44 L262.44,488.86" style="stroke: rgb(0, 118, 255); stroke-width: 2px; fill: none; fill-opacity: 1; stroke-opacity: 0.84;"/><g stroke="rgb(0,118,255)" transform="matrix(-0.9998925328992174,-0.01466024052966052,0.01466024052966052,-0.9998925328992174,265.43703703703704,488.90740740740733)" style="stroke: rgb(0, 118, 255); stroke-width: 2px;" stroke-opacity="0.84"><path d=" M14.21,-4.28 Q6.45,-0.59 0,0 Q6.45,0.59 14.21,4.28"/></g></g><g/></g><g/><g/><g/></svg>
        <svg xmlns="http://www.w3.org/2000/svg" xmlns:xlink="http://www.w3.org/1999/xlink" width="700" height="554" style="width:700px;height:554px;font-family:Asana-Math, Asana;background:#FFF;"><g><g><g><text x="419.33331298828125" y="274.13330078125" style="white-space:pre;stroke:none;fill:rgb(0,0,0);fill-opacity:1;font-size:15px;font-family:Arial, Helvetica, sans-serif;font-weight:400;font-style:normal;dominant-baseline:text-before-edge;text-decoration:rgb(0, 0, 0);">Player 2</text></g></g></g><g><g><g><text x="357" y="403.61669921875" style="white-space:pre;stroke:none;fill:rgb(0,0,0);fill-opacity:1;font-size:21.6px;font-family:Arial, Helvetica, sans-serif;font-weight:400;font-style:normal;dominant-baseline:text-before-edge;text-decoration:rgb(0, 0, 0);">T</text></g></g></g><g><g><g><g transform="matrix(1,0,0,1,241,233.20001220703125)"><path transform="matrix(0.017,0,0,-0.017,0,0)" d="M271 204L242 77C238 60 236 42 236 26C236 4 245 -9 260 -9C283 -9 324 17 406 85L399 106C375 86 346 59 324 59C315 59 309 68 309 82C309 87 309 90 310 93L402 472L392 481L359 463C318 478 301 482 274 482C246 482 226 477 199 464C137 433 104 403 79 354C35 265 4 145 4 67C4 23 19 -11 38 -11C75 -11 155 41 271 204ZM319 414C297 305 278 253 244 201C187 117 126 59 94 59C82 59 76 72 76 99C76 163 104 280 139 360C163 415 186 433 234 433C257 433 275 429 319 414Z" stroke="rgb(0,0,0)" stroke-opacity="1" stroke-width="8" fill="rgb(0,0,0)" fill-opacity="1"></path></g></g><g><g><g><g><g transform="matrix(1,0,0,1,249.04998779296875,236.13333740234376)"><path transform="matrix(0.0119,0,0,-0.0119,0,0)" d="M418 -3L418 27L366 30C311 33 301 44 301 96L301 700L60 598L67 548L217 614L217 96C217 44 206 33 152 30L96 27L96 -3C250 0 250 0 261 0C292 0 402 -3 418 -3Z" stroke="rgb(0,0,0)" stroke-opacity="1" stroke-width="8" fill="rgb(0,0,0)" fill-opacity="1"></path></g></g><g><g><g><g><g transform="matrix(1,0,0,1,255.33331298828125,238.09666259765626)"><path transform="matrix(0.00833,0,0,-0.00833,0,0)" d="M418 -3L418 27L366 30C311 33 301 44 301 96L301 700L60 598L67 548L217 614L217 96C217 44 206 33 152 30L96 27L96 -3C250 0 250 0 261 0C292 0 402 -3 418 -3Z" stroke="rgb(0,0,0)" stroke-opacity="1" stroke-width="8" fill="rgb(0,0,0)" fill-opacity="1"></path></g></g></g></g></g></g></g></g></g></g><g><g><g><g transform="matrix(1,0,0,1,423,233.20001220703125)"><path transform="matrix(0.017,0,0,-0.017,0,0)" d="M400 -16C446 -16 513 54 545 84L545 97L532 97C513 79 489 55 462 55C417 55 424 184 424 216C474 278 520 343 558 413C551 428 544 444 536 459L525 459C511 391 456 315 420 257C422 336 445 472 332 473C164 473 27 243 24 93C23 33 43 -16 111 -16C203 -16 297 64 357 131C357 96 348 -15 400 -16ZM284 437C371 437 358 224 357 164C314 113 233 28 162 28C109 28 98 70 99 115C100 202 175 437 284 437Z" stroke="rgb(0,0,0)" stroke-opacity="1" stroke-width="8" fill="rgb(0,0,0)" fill-opacity="1"></path></g></g><g><g><g><g><g transform="matrix(1,0,0,1,433.61669921875,236.00000610351563)"><path transform="matrix(0.0119,0,0,-0.0119,0,0)" d="M16 23L16 -3C203 -3 203 0 239 0C275 0 275 -3 468 -3L468 82C353 77 307 81 122 77L304 270C401 373 431 428 431 503C431 618 353 689 226 689C154 689 105 669 56 619L39 483L68 483L81 529C97 587 133 612 200 612C286 612 341 558 341 473C341 398 299 324 186 204Z" stroke="rgb(0,0,0)" stroke-opacity="1" stroke-width="8" fill="rgb(0,0,0)" fill-opacity="1"></path></g></g></g></g></g></g></g><g><g><g><g transform="matrix(1,0,0,1,310,378.20001220703125)"><path transform="matrix(0.017,0,0,-0.017,0,0)" d="M125 390L69 107C68 99 56 61 56 31C56 6 67 -9 86 -9C121 -9 156 11 234 74L265 99L255 117L210 86C181 66 161 56 150 56C141 56 136 64 136 76C136 102 150 183 179 328L192 390L299 390L310 440C272 436 238 434 200 434C216 528 227 577 245 631L234 646C214 634 187 622 156 610L131 440C87 419 61 408 43 403L41 390Z" stroke="rgb(0,0,0)" stroke-opacity="1" stroke-width="8" fill="rgb(0,0,0)" fill-opacity="1"></path></g></g><g><g><g><g><g transform="matrix(1,0,0,1,316.16668701171875,380.9999755859375)"><path transform="matrix(0.0119,0,0,-0.0119,0,0)" d="M418 -3L418 27L366 30C311 33 301 44 301 96L301 700L60 598L67 548L217 614L217 96C217 44 206 33 152 30L96 27L96 -3C250 0 250 0 261 0C292 0 402 -3 418 -3Z" stroke="rgb(0,0,0)" stroke-opacity="1" stroke-width="8" fill="rgb(0,0,0)" fill-opacity="1"></path></g></g></g></g></g></g></g><g><g><g><g transform="matrix(1,0,0,1,216,277.20001220703125)"><path transform="matrix(0.017,0,0,-0.017,0,0)" d="M271 204L242 77C238 60 236 42 236 26C236 4 245 -9 260 -9C283 -9 324 17 406 85L399 106C375 86 346 59 324 59C315 59 309 68 309 82C309 87 309 90 310 93L402 472L392 481L359 463C318 478 301 482 274 482C246 482 226 477 199 464C137 433 104 403 79 354C35 265 4 145 4 67C4 23 19 -11 38 -11C75 -11 155 41 271 204ZM319 414C297 305 278 253 244 201C187 117 126 59 94 59C82 59 76 72 76 99C76 163 104 280 139 360C163 415 186 433 234 433C257 433 275 429 319 414Z" stroke="rgb(0,0,0)" stroke-opacity="1" stroke-width="8" fill="rgb(0,0,0)" fill-opacity="1"></path></g></g><g><g><g><g><g transform="matrix(1,0,0,1,224.04998779296875,280.1333374023437)"><path transform="matrix(0.0119,0,0,-0.0119,0,0)" d="M418 -3L418 27L366 30C311 33 301 44 301 96L301 700L60 598L67 548L217 614L217 96C217 44 206 33 152 30L96 27L96 -3C250 0 250 0 261 0C292 0 402 -3 418 -3Z" stroke="rgb(0,0,0)" stroke-opacity="1" stroke-width="8" fill="rgb(0,0,0)" fill-opacity="1"></path></g></g><g><g><g><g><g transform="matrix(1,0,0,1,230.33331298828125,282.09666259765623)"><path transform="matrix(0.00833,0,0,-0.00833,0,0)" d="M263 689C108 689 29 566 29 324C29 207 50 106 85 57C120 8 176 -20 238 -20C389 -20 465 110 465 366C465 585 400 689 263 689ZM245 654C342 654 381 556 381 316C381 103 343 15 251 15C154 15 113 116 113 360C113 571 150 654 245 654Z" stroke="rgb(0,0,0)" stroke-opacity="1" stroke-width="8" fill="rgb(0,0,0)" fill-opacity="1"></path></g></g></g></g></g></g></g></g></g></g><g><g><g><g transform="matrix(1,0,0,1,350,264.20001220703125)"><path transform="matrix(0.017,0,0,-0.017,0,0)" d="M271 204L242 77C238 60 236 42 236 26C236 4 245 -9 260 -9C283 -9 324 17 406 85L399 106C375 86 346 59 324 59C315 59 309 68 309 82C309 87 309 90 310 93L402 472L392 481L359 463C318 478 301 482 274 482C246 482 226 477 199 464C137 433 104 403 79 354C35 265 4 145 4 67C4 23 19 -11 38 -11C75 -11 155 41 271 204ZM319 414C297 305 278 253 244 201C187 117 126 59 94 59C82 59 76 72 76 99C76 163 104 280 139 360C163 415 186 433 234 433C257 433 275 429 319 414Z" stroke="rgb(0,0,0)" stroke-opacity="1" stroke-width="8" fill="rgb(0,0,0)" fill-opacity="1"></path></g></g><g><g><g><g><g transform="matrix(1,0,0,1,358.04998779296875,267.0000061035156)"><path transform="matrix(0.0119,0,0,-0.0119,0,0)" d="M418 -3L418 27L366 30C311 33 301 44 301 96L301 700L60 598L67 548L217 614L217 96C217 44 206 33 152 30L96 27L96 -3C250 0 250 0 261 0C292 0 402 -3 418 -3Z" stroke="rgb(0,0,0)" stroke-opacity="1" stroke-width="8" fill="rgb(0,0,0)" fill-opacity="1"></path></g></g></g></g></g></g></g><g><g><g><g transform="matrix(1,0,0,1,354,308.20001220703125)"><path transform="matrix(0.017,0,0,-0.017,0,0)" d="M271 204L242 77C238 60 236 42 236 26C236 4 245 -9 260 -9C283 -9 324 17 406 85L399 106C375 86 346 59 324 59C315 59 309 68 309 82C309 87 309 90 310 93L402 472L392 481L359 463C318 478 301 482 274 482C246 482 226 477 199 464C137 433 104 403 79 354C35 265 4 145 4 67C4 23 19 -11 38 -11C75 -11 155 41 271 204ZM319 414C297 305 278 253 244 201C187 117 126 59 94 59C82 59 76 72 76 99C76 163 104 280 139 360C163 415 186 433 234 433C257 433 275 429 319 414Z" stroke="rgb(0,0,0)" stroke-opacity="1" stroke-width="8" fill="rgb(0,0,0)" fill-opacity="1"></path></g></g><g><g><g><g><g transform="matrix(1,0,0,1,362.04998779296875,310.9999755859375)"><path transform="matrix(0.0119,0,0,-0.0119,0,0)" d="M418 -3L418 27L366 30C311 33 301 44 301 96L301 700L60 598L67 548L217 614L217 96C217 44 206 33 152 30L96 27L96 -3C250 0 250 0 261 0C292 0 402 -3 418 -3Z" stroke="rgb(0,0,0)" stroke-opacity="1" stroke-width="8" fill="rgb(0,0,0)" fill-opacity="1"></path></g></g></g></g></g></g></g><g><g><g><g transform="matrix(1,0,0,1,252,143.20001220703125)"><path transform="matrix(0.017,0,0,-0.017,0,0)" d="M271 204L242 77C238 60 236 42 236 26C236 4 245 -9 260 -9C283 -9 324 17 406 85L399 106C375 86 346 59 324 59C315 59 309 68 309 82C309 87 309 90 310 93L402 472L392 481L359 463C318 478 301 482 274 482C246 482 226 477 199 464C137 433 104 403 79 354C35 265 4 145 4 67C4 23 19 -11 38 -11C75 -11 155 41 271 204ZM319 414C297 305 278 253 244 201C187 117 126 59 94 59C82 59 76 72 76 99C76 163 104 280 139 360C163 415 186 433 234 433C257 433 275 429 319 414Z" stroke="rgb(0,0,0)" stroke-opacity="1" stroke-width="8" fill="rgb(0,0,0)" fill-opacity="1"></path></g></g><g><g><g><g><g transform="matrix(1,0,0,1,260.04998779296875,146.13333740234376)"><path transform="matrix(0.0119,0,0,-0.0119,0,0)" d="M418 -3L418 27L366 30C311 33 301 44 301 96L301 700L60 598L67 548L217 614L217 96C217 44 206 33 152 30L96 27L96 -3C250 0 250 0 261 0C292 0 402 -3 418 -3Z" stroke="rgb(0,0,0)" stroke-opacity="1" stroke-width="8" fill="rgb(0,0,0)" fill-opacity="1"></path></g></g><g><g><g><g><g transform="matrix(1,0,0,1,266.33331298828125,148.09666259765626)"><path transform="matrix(0.00833,0,0,-0.00833,0,0)" d="M263 689C108 689 29 566 29 324C29 207 50 106 85 57C120 8 176 -20 238 -20C389 -20 465 110 465 366C465 585 400 689 263 689ZM245 654C342 654 381 556 381 316C381 103 343 15 251 15C154 15 113 116 113 360C113 571 150 654 245 654Z" stroke="rgb(0,0,0)" stroke-opacity="1" stroke-width="8" fill="rgb(0,0,0)" fill-opacity="1"></path></g></g></g></g></g></g></g></g></g></g><g><g><g><text x="258.566650390625" y="321.76666259765625" style="white-space:pre;stroke:none;fill:rgb(0,0,0);fill-opacity:1;font-size:15px;font-family:Arial, Helvetica, sans-serif;font-weight:400;font-style:normal;dominant-baseline:text-before-edge;text-decoration:rgb(0, 0, 0);">Player 1</text></g></g></g><g><g><g><g transform="matrix(1,0,0,1,276,267.20001220703125)"><path transform="matrix(0.017,0,0,-0.017,0,0)" d="M418 -3L418 27L366 30C311 33 301 44 301 96L301 700L60 598L67 548L217 614L217 96C217 44 206 33 152 30L96 27L96 -3C250 0 250 0 261 0C292 0 402 -3 418 -3Z" stroke="rgb(0,0,0)" stroke-opacity="1" stroke-width="8" fill="rgb(0,0,0)" fill-opacity="1"></path></g></g><g><g><g><g><g transform="matrix(1,0,0,1,285,270.0000061035156)"><path transform="matrix(0.0119,0,0,-0.0119,0,0)" d="M418 -3L418 27L366 30C311 33 301 44 301 96L301 700L60 598L67 548L217 614L217 96C217 44 206 33 152 30L96 27L96 -3C250 0 250 0 261 0C292 0 402 -3 418 -3Z" stroke="rgb(0,0,0)" stroke-opacity="1" stroke-width="8" fill="rgb(0,0,0)" fill-opacity="1"></path></g></g></g></g></g></g></g><g><g><g><g transform="matrix(1,0,0,1,278,308.20001220703125)"><path transform="matrix(0.017,0,0,-0.017,0,0)" d="M418 -3L418 27L366 30C311 33 301 44 301 96L301 700L60 598L67 548L217 614L217 96C217 44 206 33 152 30L96 27L96 -3C250 0 250 0 261 0C292 0 402 -3 418 -3Z" stroke="rgb(0,0,0)" stroke-opacity="1" stroke-width="8" fill="rgb(0,0,0)" fill-opacity="1"></path></g></g><g><g><g><g><g transform="matrix(1,0,0,1,287,310.9999755859375)"><path transform="matrix(0.0119,0,0,-0.0119,0,0)" d="M263 689C108 689 29 566 29 324C29 207 50 106 85 57C120 8 176 -20 238 -20C389 -20 465 110 465 366C465 585 400 689 263 689ZM245 654C342 654 381 556 381 316C381 103 343 15 251 15C154 15 113 116 113 360C113 571 150 654 245 654Z" stroke="rgb(0,0,0)" stroke-opacity="1" stroke-width="8" fill="rgb(0,0,0)" fill-opacity="1"></path></g></g></g></g></g></g></g><g><g><g><text x="330.20001220703125" y="117.33331298828125" style="white-space:pre;stroke:none;fill:rgb(0,0,0);fill-opacity:1;font-size:15px;font-family:Arial, Helvetica, sans-serif;font-weight:400;font-style:normal;dominant-baseline:text-before-edge;text-decoration:rgb(0, 0, 0);">Advicer</text></g></g></g><g><g><g><text x="347" y="95.08331298828125" style="white-space:pre;stroke:none;fill:rgb(0,0,0);fill-opacity:1;font-size:18px;font-family:Arial, Helvetica, sans-serif;font-weight:400;font-style:normal;dominant-baseline:text-before-edge;text-decoration:rgb(0, 0, 0);">Q</text></g></g></g><g><g><g><g transform="matrix(1,0,0,1,330.4000244140625,187.20001220703125)"><path transform="matrix(0.017,0,0,-0.017,0,0)" d="M271 204L242 77C238 60 236 42 236 26C236 4 245 -9 260 -9C283 -9 324 17 406 85L399 106C375 86 346 59 324 59C315 59 309 68 309 82C309 87 309 90 310 93L402 472L392 481L359 463C318 478 301 482 274 482C246 482 226 477 199 464C137 433 104 403 79 354C35 265 4 145 4 67C4 23 19 -11 38 -11C75 -11 155 41 271 204ZM319 414C297 305 278 253 244 201C187 117 126 59 94 59C82 59 76 72 76 99C76 163 104 280 139 360C163 415 186 433 234 433C257 433 275 429 319 414Z" stroke="rgb(0,0,0)" stroke-opacity="1" stroke-width="8" fill="rgb(0,0,0)" fill-opacity="1"></path></g></g><g><g><g><g><g transform="matrix(1,0,0,1,338.45001220703125,190.13333740234376)"><path transform="matrix(0.0119,0,0,-0.0119,0,0)" d="M418 -3L418 27L366 30C311 33 301 44 301 96L301 700L60 598L67 548L217 614L217 96C217 44 206 33 152 30L96 27L96 -3C250 0 250 0 261 0C292 0 402 -3 418 -3Z" stroke="rgb(0,0,0)" stroke-opacity="1" stroke-width="8" fill="rgb(0,0,0)" fill-opacity="1"></path></g></g><g><g><g><g><g transform="matrix(1,0,0,1,344.73333740234375,192.09666259765626)"><path transform="matrix(0.00833,0,0,-0.00833,0,0)" d="M418 -3L418 27L366 30C311 33 301 44 301 96L301 700L60 598L67 548L217 614L217 96C217 44 206 33 152 30L96 27L96 -3C250 0 250 0 261 0C292 0 402 -3 418 -3Z" stroke="rgb(0,0,0)" stroke-opacity="1" stroke-width="8" fill="rgb(0,0,0)" fill-opacity="1"></path></g></g></g></g></g></g></g></g><g><g transform="matrix(1,0,0,1,350.61669921875,187.20001220703125)"><path transform="matrix(0.017,0,0,-0.017,0,0)" d="M204 123C177 114 159 108 106 93C99 17 74 -48 16 -144L30 -155L71 -136C152 -31 190 32 218 109Z" stroke="rgb(0,0,0)" stroke-opacity="1" stroke-width="8" fill="rgb(0,0,0)" fill-opacity="1"></path></g></g><g><g transform="matrix(1,0,0,1,358.25,187.20001220703125)"><path transform="matrix(0.017,0,0,-0.017,0,0)" d="M649 -16C695 -16 762 54 794 84L794 97L781 97C762 79 738 55 711 55C666 55 673 184 673 216C723 278 769 343 807 413C800 428 793 444 785 459L774 459C760 391 705 315 669 257C671 336 694 472 581 473C413 473 276 243 273 93C272 33 292 -16 360 -16C452 -16 546 64 606 131C606 96 597 -15 649 -16ZM533 437C620 437 607 224 606 164C563 113 482 28 411 28C358 28 347 70 348 115C349 202 424 437 533 437Z" stroke="rgb(0,0,0)" stroke-opacity="1" stroke-width="8" fill="rgb(0,0,0)" fill-opacity="1"></path></g></g><g><g><g><g><g transform="matrix(1,0,0,1,373.0999755859375,190.00000610351563)"><path transform="matrix(0.0119,0,0,-0.0119,0,0)" d="M16 23L16 -3C203 -3 203 0 239 0C275 0 275 -3 468 -3L468 82C353 77 307 81 122 77L304 270C401 373 431 428 431 503C431 618 353 689 226 689C154 689 105 669 56 619L39 483L68 483L81 529C97 587 133 612 200 612C286 612 341 558 341 473C341 398 299 324 186 204Z" stroke="rgb(0,0,0)" stroke-opacity="1" stroke-width="8" fill="rgb(0,0,0)" fill-opacity="1"></path></g></g></g></g></g></g></g><g><g><g><g transform="matrix(1,0,0,1,268.13330078125,492.79998779296875)"><path transform="matrix(0.017,0,0,-0.017,0,0)" d="M123 111C93 111 66 83 66 53C66 23 93 -5 122 -5C154 -5 182 22 182 53C182 83 154 111 123 111ZM123 456C93 456 66 428 66 398C66 368 93 340 122 340C154 340 182 367 182 397C182 428 154 456 123 456Z" stroke="rgb(0,0,0)" stroke-opacity="1" stroke-width="8" fill="rgb(0,0,0)" fill-opacity="1"></path></g></g><g><g transform="matrix(1,0,0,1,275.76666259765625,492.79998779296875)"><path transform="matrix(0.017,0,0,-0.017,0,0)" d="M524 482C457 482 304 419 304 259C304 182 349 136 426 136C434 136 445 136 456 137L415 99C399 84 388 66 388 52C388 42 395 31 409 19C340 -4 212 -48 212 -159C212 -230 282 -276 391 -276C520 -276 633 -204 633 -121C633 -85 612 -49 569 -14L509 35C475 62 462 81 462 100C462 114 477 128 489 146C587 170 658 253 658 342C658 357 655 376 654 380C671 378 679 378 688 378C705 378 715 379 738 382L747 427L744 433C716 426 696 424 642 424C642 425 618 482 524 482ZM425 1L502 -58C548 -94 567 -121 567 -154C567 -206 498 -248 415 -248C333 -248 276 -206 276 -145C276 -43 386 -11 425 1ZM499 448C557 448 586 412 586 341C586 238 538 168 468 168C407 168 375 209 375 288C375 383 426 448 499 448ZM765 152C765 46 810 -11 893 -11C948 -11 1008 15 1053 57C1115 116 1159 230 1159 331C1159 425 1109 482 1026 482C922 482 765 382 765 152ZM989 444C1050 444 1083 399 1083 315C1083 219 1052 113 1008 60C990 39 964 27 933 27C875 27 841 72 841 151C841 264 880 387 929 427C942 438 965 444 989 444ZM1519 111L1495 94C1442 56 1394 36 1358 36C1311 36 1282 73 1282 133C1282 158 1285 185 1290 214C1307 218 1416 248 1441 259C1526 296 1565 342 1565 404C1565 451 1531 482 1481 482C1413 496 1303 423 1266 349C1236 299 1206 180 1206 113C1206 35 1250 -11 1322 -11C1379 -11 1435 17 1527 92ZM1304 274C1321 343 1341 386 1370 412C1388 428 1419 440 1443 440C1472 440 1491 420 1491 388C1491 344 1456 297 1404 272C1376 258 1340 247 1295 237ZM1610 148C1605 97 1599 62 1588 16C1626 -2 1660 -11 1695 -11C1744 -11 1790 7 1841 47C1892 87 1913 124 1913 174C1913 228 1881 257 1807 271L1764 279C1704 290 1685 307 1685 348C1685 401 1730 442 1787 442C1828 442 1866 424 1882 397L1882 342L1905 342C1909 377 1913 404 1924 455C1885 474 1857 482 1824 482C1772 482 1711 452 1663 404C1637 377 1626 352 1626 316C1626 260 1657 228 1723 215L1786 203C1830 195 1846 177 1846 138C1846 73 1800 29 1729 29C1694 29 1663 40 1635 64L1635 148ZM2383 420C2404 420 2417 421 2442 424C2387 350 2288 266 2288 126C2288 44 2323 -11 2376 -11C2440 -11 2492 44 2566 187C2557 143 2554 118 2554 95C2554 32 2583 -11 2628 -11C2762 -11 2915 238 2915 384C2915 441 2889 482 2853 482C2840 482 2828 478 2820 470L2770 423L2781 404C2790 410 2799 413 2808 413C2835 413 2851 390 2851 350C2851 205 2754 39 2669 39C2640 39 2619 79 2619 134C2619 181 2628 247 2640 290L2692 474L2685 482L2611 460L2582 311C2570 249 2556 209 2527 155C2487 80 2449 39 2419 39C2384 39 2361 78 2361 136C2361 255 2402 352 2501 464L2491 482C2471 473 2458 470 2430 470C2402 470 2360 472 2331 475L2319 476C2313 477 2308 477 2307 477C2295 477 2286 475 2275 470C2261 443 2250 407 2237 352L2259 352L2276 394C2283 411 2303 422 2327 422C2361 422 2344 420 2383 420ZM2971 388L2978 368L3010 389C3047 412 3050 414 3057 414C3067 414 3075 404 3075 391C3075 384 3071 361 3067 347L3001 107C2993 76 2988 49 2988 30C2988 6 2999 -9 3018 -9C3044 -9 3080 12 3178 85L3168 103L3142 86C3113 67 3090 56 3081 56C3074 56 3068 66 3068 76C3068 86 3070 95 3075 116L3152 420C3156 437 3158 448 3158 456C3158 473 3149 482 3133 482C3111 482 3074 461 2999 408ZM3165 712C3136 712 3107 679 3107 645C3107 620 3122 604 3146 604C3177 604 3201 633 3201 671C3201 695 3186 712 3165 712ZM3339 390L3283 107C3282 99 3270 61 3270 31C3270 6 3281 -9 3300 -9C3335 -9 3370 11 3448 74L3479 99L3469 117L3424 86C3395 66 3375 56 3364 56C3355 56 3350 64 3350 76C3350 102 3364 183 3393 328L3406 390L3513 390L3524 440C3486 436 3452 434 3414 434C3430 528 3441 577 3459 631L3448 646C3428 634 3401 622 3370 610L3345 440C3301 419 3275 408 3257 403L3255 390ZM3782 722L3770 733C3725 711 3684 697 3610 691L3606 670L3654 670C3672 670 3688 667 3688 647C3688 641 3688 632 3686 622L3644 388C3624 272 3582 80 3556 2L3563 -9L3632 7C3640 64 3654 164 3694 236C3739 317 3842 414 3884 414C3895 414 3906 407 3906 393C3906 375 3901 342 3891 303L3840 107C3834 85 3827 55 3827 31C3827 6 3837 -9 3858 -9C3890 -9 3958 41 4017 85L4007 103L3981 86C3958 71 3932 56 3920 56C3913 56 3907 65 3907 76C3907 88 3910 101 3914 116L3978 372C3984 398 3989 423 3989 447C3989 464 3983 482 3957 482C3922 482 3845 437 3777 374C3744 343 3718 308 3690 273L3686 275ZM4470 -11C4526 -11 4641 62 4684 125C4725 186 4759 296 4759 371C4759 438 4736 482 4700 482C4658 482 4605 456 4553 409C4512 374 4492 348 4456 289L4480 408C4483 425 4485 440 4485 452C4485 471 4477 482 4463 482C4442 482 4404 461 4330 408L4302 388L4309 368L4341 389C4369 407 4380 412 4389 412C4399 412 4406 403 4406 389C4406 381 4404 361 4402 351L4344 8C4334 -52 4315 -143 4295 -233L4287 -270L4294 -276C4315 -269 4335 -264 4367 -259L4409 3C4430 -4 4452 -11 4470 -11ZM4437 165C4459 293 4566 424 4649 424C4675 424 4687 402 4687 356C4687 275 4647 156 4594 80C4574 51 4542 36 4501 36C4470 36 4445 43 4419 59ZM5161 365C5164 403 5169 435 5177 476C5166 481 5162 482 5157 482C5126 482 5095 458 5059 407C5020 351 4981 291 4965 256L4997 408C5001 425 5003 438 5003 450C5003 470 4995 482 4980 482C4959 482 4921 461 4847 408L4819 388L4826 368L4858 389C4886 407 4897 412 4906 412C4916 412 4923 403 4923 390C4923 332 4880 126 4840 -2L4850 -9C4865 -4 4881 -1 4904 4L4917 6L4943 126C4961 209 4984 262 5028 319C5062 363 5089 384 5111 384C5126 384 5136 379 5147 365ZM5198 152C5198 46 5243 -11 5326 -11C5381 -11 5441 15 5486 57C5548 116 5592 230 5592 331C5592 425 5542 482 5459 482C5355 482 5198 382 5198 152ZM5422 444C5483 444 5516 399 5516 315C5516 219 5485 113 5441 60C5423 39 5397 27 5366 27C5308 27 5274 72 5274 151C5274 264 5313 387 5362 427C5375 438 5398 444 5422 444ZM5859 722L5847 733C5795 707 5759 698 5687 691L5683 670L5731 670C5755 670 5765 663 5765 646C5765 639 5764 628 5763 622L5662 71C5661 68 5661 64 5661 61C5661 22 5709 -11 5764 -11C5801 -11 5852 8 5895 39C5991 107 6057 244 6057 376C6057 414 6048 453 6036 468C6029 477 6016 482 6001 482C5977 482 5947 474 5919 460C5868 433 5835 403 5773 324ZM5946 424C5972 424 5985 401 5985 352C5985 288 5964 202 5934 137C5901 68 5861 36 5807 36C5761 36 5736 59 5736 101C5736 135 5751 276 5832 361C5865 395 5917 424 5946 424ZM6357 204L6328 77C6324 60 6322 42 6322 26C6322 4 6331 -9 6346 -9C6369 -9 6410 17 6492 85L6485 106C6461 86 6432 59 6410 59C6401 59 6395 68 6395 82C6395 87 6395 90 6396 93L6488 472L6478 481L6445 463C6404 478 6387 482 6360 482C6332 482 6312 477 6285 464C6223 433 6190 403 6165 354C6121 265 6090 145 6090 67C6090 23 6105 -11 6124 -11C6161 -11 6241 41 6357 204ZM6405 414C6383 305 6364 253 6330 201C6273 117 6212 59 6180 59C6168 59 6162 72 6162 99C6162 163 6190 280 6225 360C6249 415 6272 433 6320 433C6343 433 6361 429 6405 414ZM6764 722L6752 733C6700 707 6664 698 6592 691L6588 670L6636 670C6660 670 6670 663 6670 646C6670 639 6669 628 6668 622L6567 71C6566 68 6566 64 6566 61C6566 22 6614 -11 6669 -11C6706 -11 6757 8 6800 39C6896 107 6962 244 6962 376C6962 414 6953 453 6941 468C6934 477 6921 482 6906 482C6882 482 6852 474 6824 460C6773 433 6740 403 6678 324ZM6851 424C6877 424 6890 401 6890 352C6890 288 6869 202 6839 137C6806 68 6766 36 6712 36C6666 36 6641 59 6641 101C6641 135 6656 276 6737 361C6770 395 6822 424 6851 424ZM7025 388L7032 368L7064 389C7101 412 7104 414 7111 414C7121 414 7129 404 7129 391C7129 384 7125 361 7121 347L7055 107C7047 76 7042 49 7042 30C7042 6 7053 -9 7072 -9C7098 -9 7134 12 7232 85L7222 103L7196 86C7167 67 7144 56 7135 56C7128 56 7122 66 7122 76C7122 86 7124 95 7129 116L7206 420C7210 437 7212 448 7212 456C7212 473 7203 482 7187 482C7165 482 7128 461 7053 408ZM7219 712C7190 712 7161 679 7161 645C7161 620 7176 604 7200 604C7231 604 7255 633 7255 671C7255 695 7240 712 7219 712ZM7519 722L7507 733C7455 707 7419 698 7347 691L7343 670L7391 670C7415 670 7425 663 7425 648C7425 645 7425 640 7422 622C7411 567 7338 182 7323 132C7310 82 7304 52 7304 31C7304 6 7315 -9 7334 -9C7360 -9 7396 12 7494 85L7484 103L7458 86C7429 67 7407 56 7397 56C7390 56 7384 66 7384 76C7384 82 7385 89 7388 104ZM7579 388L7586 368L7618 389C7655 412 7658 414 7665 414C7675 414 7683 404 7683 391C7683 384 7679 361 7675 347L7609 107C7601 76 7596 49 7596 30C7596 6 7607 -9 7626 -9C7652 -9 7688 12 7786 85L7776 103L7750 86C7721 67 7698 56 7689 56C7682 56 7676 66 7676 76C7676 86 7678 95 7683 116L7760 420C7764 437 7766 448 7766 456C7766 473 7757 482 7741 482C7719 482 7682 461 7607 408ZM7773 712C7744 712 7715 679 7715 645C7715 620 7730 604 7754 604C7785 604 7809 633 7809 671C7809 695 7794 712 7773 712ZM7947 390L7891 107C7890 99 7878 61 7878 31C7878 6 7889 -9 7908 -9C7943 -9 7978 11 8056 74L8087 99L8077 117L8032 86C8003 66 7983 56 7972 56C7963 56 7958 64 7958 76C7958 102 7972 183 8001 328L8014 390L8121 390L8132 440C8094 436 8060 434 8022 434C8038 528 8049 577 8067 631L8056 646C8036 634 8009 622 7978 610L7953 440C7909 419 7883 408 7865 403L7863 390ZM8147 -180C8146 -187 8146 -193 8146 -198C8146 -241 8183 -276 8228 -276C8334 -276 8444 -152 8503 33L8644 473L8633 482C8604 471 8581 465 8559 463L8524 331C8512 284 8477 211 8444 162C8409 111 8360 67 8338 67C8326 67 8317 90 8318 115L8334 322C8336 353 8338 391 8338 419C8338 464 8331 482 8314 482C8301 482 8287 475 8239 442L8157 386L8168 368L8218 398C8223 401 8234 410 8243 410C8257 410 8265 391 8265 358C8265 357 8265 351 8264 343L8247 100L8246 60C8246 18 8264 -11 8289 -11C8326 -11 8410 74 8485 187L8436 16C8385 -161 8335 -234 8265 -234C8230 -234 8203 -207 8203 -172C8203 -167 8204 -159 8205 -150L8195 -146ZM9007 664L9062 662C9086 661 9097 653 9097 635L9014 125C8997 34 8996 31 8956 28L8915 25L8911 -3L8953 -2C8994 -1 9025 0 9043 0C9060 0 9089 -1 9129 -2L9182 -3L9185 25L9120 28C9094 29 9084 37 9084 58C9084 67 9085 74 9088 93L9186 648C9222 654 9238 656 9257 656C9359 656 9408 612 9408 519C9408 411 9336 323 9248 323C9226 323 9206 328 9169 342L9171 311C9208 293 9228 288 9257 288C9386 288 9496 405 9496 541C9496 642 9433 695 9314 692L9010 692Z" stroke="rgb(0,0,0)" stroke-opacity="1" stroke-width="8" fill="rgb(0,0,0)" fill-opacity="1"></path></g></g><g><g transform="matrix(1,0,0,1,437.5166015625,492.5999755859375)"><path transform="matrix(0.017,0,0,-0.017,0,0)" d="M146 266C146 526 243 632 301 700L282 726C225 675 60 542 60 266C60 159 85 58 133 -32C168 -99 200 -138 282 -215L301 -194C255 -137 146 -15 146 266Z" stroke="rgb(0,0,0)" stroke-opacity="1" stroke-width="8" fill="rgb(0,0,0)" fill-opacity="1"></path></g></g><g><g transform="matrix(1,0,0,1,443.1666259765625,492.79998779296875)"><path transform="matrix(0.017,0,0,-0.017,0,0)" d="M125 390L69 107C68 99 56 61 56 31C56 6 67 -9 86 -9C121 -9 156 11 234 74L265 99L255 117L210 86C181 66 161 56 150 56C141 56 136 64 136 76C136 102 150 183 179 328L192 390L299 390L310 440C272 436 238 434 200 434C216 528 227 577 245 631L234 646C214 634 187 622 156 610L131 440C87 419 61 408 43 403L41 390Z" stroke="rgb(0,0,0)" stroke-opacity="1" stroke-width="8" fill="rgb(0,0,0)" fill-opacity="1"></path></g></g><g><g><g><g><g transform="matrix(1,0,0,1,449.3333740234375,495.6000122070312)"><path transform="matrix(0.0119,0,0,-0.0119,0,0)" d="M418 -3L418 27L366 30C311 33 301 44 301 96L301 700L60 598L67 548L217 614L217 96C217 44 206 33 152 30L96 27L96 -3C250 0 250 0 261 0C292 0 402 -3 418 -3Z" stroke="rgb(0,0,0)" stroke-opacity="1" stroke-width="8" fill="rgb(0,0,0)" fill-opacity="1"></path></g></g></g></g></g><g><g transform="matrix(1,0,0,1,461.38330078125,492.79998779296875)"><path transform="matrix(0.017,0,0,-0.017,0,0)" d="M604 347L604 406L65 406L65 347ZM604 134L604 193L65 193L65 134Z" stroke="rgb(0,0,0)" stroke-opacity="1" stroke-width="8" fill="rgb(0,0,0)" fill-opacity="1"></path></g></g><g><g transform="matrix(1,0,0,1,477.8333740234375,492.79998779296875)"><path transform="matrix(0.017,0,0,-0.017,0,0)" d="M263 689C108 689 29 566 29 324C29 207 50 106 85 57C120 8 176 -20 238 -20C389 -20 465 110 465 366C465 585 400 689 263 689ZM245 654C342 654 381 556 381 316C381 103 343 15 251 15C154 15 113 116 113 360C113 571 150 654 245 654Z" stroke="rgb(0,0,0)" stroke-opacity="1" stroke-width="8" fill="rgb(0,0,0)" fill-opacity="1"></path></g></g><g><g transform="matrix(1,0,0,1,486.316650390625,492.5999755859375)"><path transform="matrix(0.017,0,0,-0.017,0,0)" d="M51 726L32 700C87 636 187 526 187 266C187 -10 83 -131 32 -194L51 -215C104 -165 273 -23 273 265C273 542 108 675 51 726Z" stroke="rgb(0,0,0)" stroke-opacity="1" stroke-width="8" fill="rgb(0,0,0)" fill-opacity="1"></path></g></g></g></g><g><g><g><g transform="matrix(1,0,0,1,268.13330078125,466.86669921875)"><path transform="matrix(0.017,0,0,-0.017,0,0)" d="M123 111C93 111 66 83 66 53C66 23 93 -5 122 -5C154 -5 182 22 182 53C182 83 154 111 123 111ZM123 456C93 456 66 428 66 398C66 368 93 340 122 340C154 340 182 367 182 397C182 428 154 456 123 456Z" stroke="rgb(0,0,0)" stroke-opacity="1" stroke-width="8" fill="rgb(0,0,0)" fill-opacity="1"></path></g></g><g><g transform="matrix(1,0,0,1,275.76666259765625,466.86669921875)"><path transform="matrix(0.017,0,0,-0.017,0,0)" d="M524 482C457 482 304 419 304 259C304 182 349 136 426 136C434 136 445 136 456 137L415 99C399 84 388 66 388 52C388 42 395 31 409 19C340 -4 212 -48 212 -159C212 -230 282 -276 391 -276C520 -276 633 -204 633 -121C633 -85 612 -49 569 -14L509 35C475 62 462 81 462 100C462 114 477 128 489 146C587 170 658 253 658 342C658 357 655 376 654 380C671 378 679 378 688 378C705 378 715 379 738 382L747 427L744 433C716 426 696 424 642 424C642 425 618 482 524 482ZM425 1L502 -58C548 -94 567 -121 567 -154C567 -206 498 -248 415 -248C333 -248 276 -206 276 -145C276 -43 386 -11 425 1ZM499 448C557 448 586 412 586 341C586 238 538 168 468 168C407 168 375 209 375 288C375 383 426 448 499 448ZM765 152C765 46 810 -11 893 -11C948 -11 1008 15 1053 57C1115 116 1159 230 1159 331C1159 425 1109 482 1026 482C922 482 765 382 765 152ZM989 444C1050 444 1083 399 1083 315C1083 219 1052 113 1008 60C990 39 964 27 933 27C875 27 841 72 841 151C841 264 880 387 929 427C942 438 965 444 989 444ZM1519 111L1495 94C1442 56 1394 36 1358 36C1311 36 1282 73 1282 133C1282 158 1285 185 1290 214C1307 218 1416 248 1441 259C1526 296 1565 342 1565 404C1565 451 1531 482 1481 482C1413 496 1303 423 1266 349C1236 299 1206 180 1206 113C1206 35 1250 -11 1322 -11C1379 -11 1435 17 1527 92ZM1304 274C1321 343 1341 386 1370 412C1388 428 1419 440 1443 440C1472 440 1491 420 1491 388C1491 344 1456 297 1404 272C1376 258 1340 247 1295 237ZM1610 148C1605 97 1599 62 1588 16C1626 -2 1660 -11 1695 -11C1744 -11 1790 7 1841 47C1892 87 1913 124 1913 174C1913 228 1881 257 1807 271L1764 279C1704 290 1685 307 1685 348C1685 401 1730 442 1787 442C1828 442 1866 424 1882 397L1882 342L1905 342C1909 377 1913 404 1924 455C1885 474 1857 482 1824 482C1772 482 1711 452 1663 404C1637 377 1626 352 1626 316C1626 260 1657 228 1723 215L1786 203C1830 195 1846 177 1846 138C1846 73 1800 29 1729 29C1694 29 1663 40 1635 64L1635 148ZM2383 420C2404 420 2417 421 2442 424C2387 350 2288 266 2288 126C2288 44 2323 -11 2376 -11C2440 -11 2492 44 2566 187C2557 143 2554 118 2554 95C2554 32 2583 -11 2628 -11C2762 -11 2915 238 2915 384C2915 441 2889 482 2853 482C2840 482 2828 478 2820 470L2770 423L2781 404C2790 410 2799 413 2808 413C2835 413 2851 390 2851 350C2851 205 2754 39 2669 39C2640 39 2619 79 2619 134C2619 181 2628 247 2640 290L2692 474L2685 482L2611 460L2582 311C2570 249 2556 209 2527 155C2487 80 2449 39 2419 39C2384 39 2361 78 2361 136C2361 255 2402 352 2501 464L2491 482C2471 473 2458 470 2430 470C2402 470 2360 472 2331 475L2319 476C2313 477 2308 477 2307 477C2295 477 2286 475 2275 470C2261 443 2250 407 2237 352L2259 352L2276 394C2283 411 2303 422 2327 422C2361 422 2344 420 2383 420ZM2971 388L2978 368L3010 389C3047 412 3050 414 3057 414C3067 414 3075 404 3075 391C3075 384 3071 361 3067 347L3001 107C2993 76 2988 49 2988 30C2988 6 2999 -9 3018 -9C3044 -9 3080 12 3178 85L3168 103L3142 86C3113 67 3090 56 3081 56C3074 56 3068 66 3068 76C3068 86 3070 95 3075 116L3152 420C3156 437 3158 448 3158 456C3158 473 3149 482 3133 482C3111 482 3074 461 2999 408ZM3165 712C3136 712 3107 679 3107 645C3107 620 3122 604 3146 604C3177 604 3201 633 3201 671C3201 695 3186 712 3165 712ZM3339 390L3283 107C3282 99 3270 61 3270 31C3270 6 3281 -9 3300 -9C3335 -9 3370 11 3448 74L3479 99L3469 117L3424 86C3395 66 3375 56 3364 56C3355 56 3350 64 3350 76C3350 102 3364 183 3393 328L3406 390L3513 390L3524 440C3486 436 3452 434 3414 434C3430 528 3441 577 3459 631L3448 646C3428 634 3401 622 3370 610L3345 440C3301 419 3275 408 3257 403L3255 390ZM3782 722L3770 733C3725 711 3684 697 3610 691L3606 670L3654 670C3672 670 3688 667 3688 647C3688 641 3688 632 3686 622L3644 388C3624 272 3582 80 3556 2L3563 -9L3632 7C3640 64 3654 164 3694 236C3739 317 3842 414 3884 414C3895 414 3906 407 3906 393C3906 375 3901 342 3891 303L3840 107C3834 85 3827 55 3827 31C3827 6 3837 -9 3858 -9C3890 -9 3958 41 4017 85L4007 103L3981 86C3958 71 3932 56 3920 56C3913 56 3907 65 3907 76C3907 88 3910 101 3914 116L3978 372C3984 398 3989 423 3989 447C3989 464 3983 482 3957 482C3922 482 3845 437 3777 374C3744 343 3718 308 3690 273L3686 275ZM4470 -11C4526 -11 4641 62 4684 125C4725 186 4759 296 4759 371C4759 438 4736 482 4700 482C4658 482 4605 456 4553 409C4512 374 4492 348 4456 289L4480 408C4483 425 4485 440 4485 452C4485 471 4477 482 4463 482C4442 482 4404 461 4330 408L4302 388L4309 368L4341 389C4369 407 4380 412 4389 412C4399 412 4406 403 4406 389C4406 381 4404 361 4402 351L4344 8C4334 -52 4315 -143 4295 -233L4287 -270L4294 -276C4315 -269 4335 -264 4367 -259L4409 3C4430 -4 4452 -11 4470 -11ZM4437 165C4459 293 4566 424 4649 424C4675 424 4687 402 4687 356C4687 275 4647 156 4594 80C4574 51 4542 36 4501 36C4470 36 4445 43 4419 59ZM5161 365C5164 403 5169 435 5177 476C5166 481 5162 482 5157 482C5126 482 5095 458 5059 407C5020 351 4981 291 4965 256L4997 408C5001 425 5003 438 5003 450C5003 470 4995 482 4980 482C4959 482 4921 461 4847 408L4819 388L4826 368L4858 389C4886 407 4897 412 4906 412C4916 412 4923 403 4923 390C4923 332 4880 126 4840 -2L4850 -9C4865 -4 4881 -1 4904 4L4917 6L4943 126C4961 209 4984 262 5028 319C5062 363 5089 384 5111 384C5126 384 5136 379 5147 365ZM5198 152C5198 46 5243 -11 5326 -11C5381 -11 5441 15 5486 57C5548 116 5592 230 5592 331C5592 425 5542 482 5459 482C5355 482 5198 382 5198 152ZM5422 444C5483 444 5516 399 5516 315C5516 219 5485 113 5441 60C5423 39 5397 27 5366 27C5308 27 5274 72 5274 151C5274 264 5313 387 5362 427C5375 438 5398 444 5422 444ZM5859 722L5847 733C5795 707 5759 698 5687 691L5683 670L5731 670C5755 670 5765 663 5765 646C5765 639 5764 628 5763 622L5662 71C5661 68 5661 64 5661 61C5661 22 5709 -11 5764 -11C5801 -11 5852 8 5895 39C5991 107 6057 244 6057 376C6057 414 6048 453 6036 468C6029 477 6016 482 6001 482C5977 482 5947 474 5919 460C5868 433 5835 403 5773 324ZM5946 424C5972 424 5985 401 5985 352C5985 288 5964 202 5934 137C5901 68 5861 36 5807 36C5761 36 5736 59 5736 101C5736 135 5751 276 5832 361C5865 395 5917 424 5946 424ZM6357 204L6328 77C6324 60 6322 42 6322 26C6322 4 6331 -9 6346 -9C6369 -9 6410 17 6492 85L6485 106C6461 86 6432 59 6410 59C6401 59 6395 68 6395 82C6395 87 6395 90 6396 93L6488 472L6478 481L6445 463C6404 478 6387 482 6360 482C6332 482 6312 477 6285 464C6223 433 6190 403 6165 354C6121 265 6090 145 6090 67C6090 23 6105 -11 6124 -11C6161 -11 6241 41 6357 204ZM6405 414C6383 305 6364 253 6330 201C6273 117 6212 59 6180 59C6168 59 6162 72 6162 99C6162 163 6190 280 6225 360C6249 415 6272 433 6320 433C6343 433 6361 429 6405 414ZM6764 722L6752 733C6700 707 6664 698 6592 691L6588 670L6636 670C6660 670 6670 663 6670 646C6670 639 6669 628 6668 622L6567 71C6566 68 6566 64 6566 61C6566 22 6614 -11 6669 -11C6706 -11 6757 8 6800 39C6896 107 6962 244 6962 376C6962 414 6953 453 6941 468C6934 477 6921 482 6906 482C6882 482 6852 474 6824 460C6773 433 6740 403 6678 324ZM6851 424C6877 424 6890 401 6890 352C6890 288 6869 202 6839 137C6806 68 6766 36 6712 36C6666 36 6641 59 6641 101C6641 135 6656 276 6737 361C6770 395 6822 424 6851 424ZM7025 388L7032 368L7064 389C7101 412 7104 414 7111 414C7121 414 7129 404 7129 391C7129 384 7125 361 7121 347L7055 107C7047 76 7042 49 7042 30C7042 6 7053 -9 7072 -9C7098 -9 7134 12 7232 85L7222 103L7196 86C7167 67 7144 56 7135 56C7128 56 7122 66 7122 76C7122 86 7124 95 7129 116L7206 420C7210 437 7212 448 7212 456C7212 473 7203 482 7187 482C7165 482 7128 461 7053 408ZM7219 712C7190 712 7161 679 7161 645C7161 620 7176 604 7200 604C7231 604 7255 633 7255 671C7255 695 7240 712 7219 712ZM7519 722L7507 733C7455 707 7419 698 7347 691L7343 670L7391 670C7415 670 7425 663 7425 648C7425 645 7425 640 7422 622C7411 567 7338 182 7323 132C7310 82 7304 52 7304 31C7304 6 7315 -9 7334 -9C7360 -9 7396 12 7494 85L7484 103L7458 86C7429 67 7407 56 7397 56C7390 56 7384 66 7384 76C7384 82 7385 89 7388 104ZM7579 388L7586 368L7618 389C7655 412 7658 414 7665 414C7675 414 7683 404 7683 391C7683 384 7679 361 7675 347L7609 107C7601 76 7596 49 7596 30C7596 6 7607 -9 7626 -9C7652 -9 7688 12 7786 85L7776 103L7750 86C7721 67 7698 56 7689 56C7682 56 7676 66 7676 76C7676 86 7678 95 7683 116L7760 420C7764 437 7766 448 7766 456C7766 473 7757 482 7741 482C7719 482 7682 461 7607 408ZM7773 712C7744 712 7715 679 7715 645C7715 620 7730 604 7754 604C7785 604 7809 633 7809 671C7809 695 7794 712 7773 712ZM7947 390L7891 107C7890 99 7878 61 7878 31C7878 6 7889 -9 7908 -9C7943 -9 7978 11 8056 74L8087 99L8077 117L8032 86C8003 66 7983 56 7972 56C7963 56 7958 64 7958 76C7958 102 7972 183 8001 328L8014 390L8121 390L8132 440C8094 436 8060 434 8022 434C8038 528 8049 577 8067 631L8056 646C8036 634 8009 622 7978 610L7953 440C7909 419 7883 408 7865 403L7863 390ZM8147 -180C8146 -187 8146 -193 8146 -198C8146 -241 8183 -276 8228 -276C8334 -276 8444 -152 8503 33L8644 473L8633 482C8604 471 8581 465 8559 463L8524 331C8512 284 8477 211 8444 162C8409 111 8360 67 8338 67C8326 67 8317 90 8318 115L8334 322C8336 353 8338 391 8338 419C8338 464 8331 482 8314 482C8301 482 8287 475 8239 442L8157 386L8168 368L8218 398C8223 401 8234 410 8243 410C8257 410 8265 391 8265 358C8265 357 8265 351 8264 343L8247 100L8246 60C8246 18 8264 -11 8289 -11C8326 -11 8410 74 8485 187L8436 16C8385 -161 8335 -234 8265 -234C8230 -234 8203 -207 8203 -172C8203 -167 8204 -159 8205 -150L8195 -146ZM9007 664L9062 662C9086 661 9097 653 9097 635L9014 125C8997 34 8996 31 8956 28L8915 25L8911 -3L8953 -2C8994 -1 9025 0 9043 0C9060 0 9089 -1 9129 -2L9182 -3L9185 25L9120 28C9094 29 9084 37 9084 58C9084 67 9085 74 9088 93L9186 648C9222 654 9238 656 9257 656C9359 656 9408 612 9408 519C9408 411 9336 323 9248 323C9226 323 9206 328 9169 342L9171 311C9208 293 9228 288 9257 288C9386 288 9496 405 9496 541C9496 642 9433 695 9314 692L9010 692Z" stroke="rgb(0,0,0)" stroke-opacity="1" stroke-width="8" fill="rgb(0,0,0)" fill-opacity="1"></path></g></g><g><g transform="matrix(1,0,0,1,437.5166015625,466.66668701171875)"><path transform="matrix(0.017,0,0,-0.017,0,0)" d="M146 266C146 526 243 632 301 700L282 726C225 675 60 542 60 266C60 159 85 58 133 -32C168 -99 200 -138 282 -215L301 -194C255 -137 146 -15 146 266Z" stroke="rgb(0,0,0)" stroke-opacity="1" stroke-width="8" fill="rgb(0,0,0)" fill-opacity="1"></path></g></g><g><g transform="matrix(1,0,0,1,443.1666259765625,466.86669921875)"><path transform="matrix(0.017,0,0,-0.017,0,0)" d="M125 390L69 107C68 99 56 61 56 31C56 6 67 -9 86 -9C121 -9 156 11 234 74L265 99L255 117L210 86C181 66 161 56 150 56C141 56 136 64 136 76C136 102 150 183 179 328L192 390L299 390L310 440C272 436 238 434 200 434C216 528 227 577 245 631L234 646C214 634 187 622 156 610L131 440C87 419 61 408 43 403L41 390Z" stroke="rgb(0,0,0)" stroke-opacity="1" stroke-width="8" fill="rgb(0,0,0)" fill-opacity="1"></path></g></g><g><g><g><g><g transform="matrix(1,0,0,1,449.3333740234375,469.6666625976562)"><path transform="matrix(0.0119,0,0,-0.0119,0,0)" d="M418 -3L418 27L366 30C311 33 301 44 301 96L301 700L60 598L67 548L217 614L217 96C217 44 206 33 152 30L96 27L96 -3C250 0 250 0 261 0C292 0 402 -3 418 -3Z" stroke="rgb(0,0,0)" stroke-opacity="1" stroke-width="8" fill="rgb(0,0,0)" fill-opacity="1"></path></g></g></g></g></g><g><g transform="matrix(1,0,0,1,461.38330078125,466.86669921875)"><path transform="matrix(0.017,0,0,-0.017,0,0)" d="M604 347L604 406L65 406L65 347ZM604 134L604 193L65 193L65 134Z" stroke="rgb(0,0,0)" stroke-opacity="1" stroke-width="8" fill="rgb(0,0,0)" fill-opacity="1"></path></g></g><g><g transform="matrix(1,0,0,1,477.8333740234375,466.86669921875)"><path transform="matrix(0.017,0,0,-0.017,0,0)" d="M418 -3L418 27L366 30C311 33 301 44 301 96L301 700L60 598L67 548L217 614L217 96C217 44 206 33 152 30L96 27L96 -3C250 0 250 0 261 0C292 0 402 -3 418 -3Z" stroke="rgb(0,0,0)" stroke-opacity="1" stroke-width="8" fill="rgb(0,0,0)" fill-opacity="1"></path></g></g><g><g transform="matrix(1,0,0,1,486.316650390625,466.66668701171875)"><path transform="matrix(0.017,0,0,-0.017,0,0)" d="M51 726L32 700C87 636 187 526 187 266C187 -10 83 -131 32 -194L51 -215C104 -165 273 -23 273 265C273 542 108 675 51 726Z" stroke="rgb(0,0,0)" stroke-opacity="1" stroke-width="8" fill="rgb(0,0,0)" fill-opacity="1"></path></g></g></g></g><g><g><g><text x="248" y="21.73333740234375" style="white-space:pre;stroke:none;fill:rgb(0,0,0);fill-opacity:1;font-size:31.05px;font-family:Arial, Helvetica, sans-serif;font-weight:400;font-style:normal;dominant-baseline:text-before-edge;text-decoration:underline rgb(0, 0, 0);">Forges EX-3</text></g></g></g></svg>
</svg>
